<svg xmlns="http://www.w3.org/2000/svg" viewBox="0 0 128 96" fill="none" data-flip="true">
  <rect x="24" y="24" width="80" height="48" rx="5" stroke="#161616" stroke-width="1.5" vector-effect="non-scaling-stroke"/>
  <path d="M29 24h21v48H29a5 5 0 0 1-5-5V29a5 5 0 0 1 5-5Z" fill="#161616" fill-opacity="0.04"/>
  <path d="M50 24v48" stroke="#161616" stroke-width="1.5" stroke-opacity="0.4" vector-effect="non-scaling-stroke"/>
  <rect x="28" y="32" width="18" height="8" rx="2" fill="#1b8354" fill-opacity="0.15"/>
  <circle cx="32" cy="36" r="2.2" fill="#1b8354"/>
  <rect x="36" y="34.5" width="9" height="3" rx="1.5" fill="#1b8354" fill-opacity="0.8"/>
  <circle cx="32" cy="48" r="2.2" fill="#161616" fill-opacity="0.35"/>
  <rect x="36" y="46.5" width="9" height="3" rx="1.5" fill="#161616" fill-opacity="0.3"/>
  <circle cx="32" cy="58" r="2.2" fill="#161616" fill-opacity="0.35"/>
  <rect x="36" y="56.5" width="9" height="3" rx="1.5" fill="#161616" fill-opacity="0.3"/>
  <rect x="56" y="32" width="30" height="5" rx="2" fill="#161616" fill-opacity="0.4"/>
  <rect x="56" y="44" width="42" height="3.5" rx="1.75" fill="#161616" fill-opacity="0.25"/>
  <rect x="56" y="52" width="38" height="3.5" rx="1.75" fill="#161616" fill-opacity="0.25"/>
  <rect x="56" y="60" width="42" height="3.5" rx="1.75" fill="#161616" fill-opacity="0.25"/>
</svg>
