<svg xmlns="http://www.w3.org/2000/svg" viewBox="0 0 128 96" fill="none" stroke-linecap="round" stroke-linejoin="round">
  <path d="M41 30h46a5 5 0 0 1 5 5v12a5 5 0 0 1-5 5H69l-5 6-5-6H41a5 5 0 0 1-5-5V35a5 5 0 0 1 5-5Z" fill="#161616" fill-opacity="0.04" stroke="#161616" stroke-width="1.5" vector-effect="non-scaling-stroke"/>
  <rect x="44" y="37" width="36" height="4" rx="2" fill="#161616" fill-opacity="0.45"/>
  <rect x="44" y="44" width="26" height="3.5" rx="1.75" fill="#161616" fill-opacity="0.3"/>
  <circle cx="64" cy="66" r="6" stroke="#1b8354" stroke-width="1.5" vector-effect="non-scaling-stroke"/>
  <path d="M62.2 64.2a2 2 0 1 1 2.4 2c-.5.3-.7.6-.7 1.1" stroke="#1b8354" stroke-width="1.3" vector-effect="non-scaling-stroke"/>
  <circle cx="64" cy="69.6" r="0.9" fill="#1b8354"/>
</svg>
